<svg width="38" height="32" viewBox="0 0 38 32" fill="none" xmlns="http://www.w3.org/2000/svg">
<path d="M26.1882 22.9726C27.8439 22.0523 27.6294 18.5062 25.7105 15.0463C24.8874 13.5566 23.8754 12.3503 22.8633 11.5069C21.6532 12.405 20.1873 12.8921 18.6803 12.8968C17.1709 12.8934 15.7025 12.4063 14.4904 11.5069C13.4784 12.3503 12.469 13.558 11.6432 15.0463C9.72304 18.5048 9.51119 22.0523 11.1709 22.9726C11.9104 23.3936 12.6903 23.0779 13.4946 22.3033C13.344 23.1378 13.2686 23.9841 13.2692 24.8321C13.2692 28.7966 14.8075 32 16.7007 32C17.8423 32 18.4077 30.8328 18.6789 29.0475C18.9488 30.8206 19.5155 32 20.649 32C22.5341 32 24.0845 28.7952 24.0845 24.8321C24.0845 23.9415 24.0009 23.0914 23.8578 22.3047C24.6675 23.0806 25.4447 23.4017 26.1869 22.9753L26.1882 22.9726ZM18.6776 11.5474C19.4431 11.5588 20.2034 11.4179 20.914 11.1327C21.6246 10.8476 22.2714 10.424 22.8167 9.88652C23.3621 9.34906 23.7951 8.70851 24.0906 8.00213C24.386 7.29576 24.5381 6.53767 24.5378 5.77199C24.5375 5.00631 24.385 4.24833 24.089 3.54216C23.793 2.83599 23.3596 2.19574 22.8139 1.65867C22.2681 1.1216 21.621 0.698428 20.9102 0.413791C20.1994 0.129155 19.4391 -0.0112644 18.6735 0.000705681C17.1576 0.024407 15.7119 0.643367 14.6484 1.72393C13.585 2.8045 12.9892 4.25996 12.9898 5.77604C12.9903 7.29212 13.5871 8.74716 14.6513 9.82698C15.7155 10.9068 17.1616 11.5247 18.6776 11.5474ZM30.2742 15.2096C31.5072 15.1736 32.6777 14.6584 33.5372 13.7735C34.3966 12.8885 34.8774 11.7035 34.8774 10.4699C34.8774 9.2363 34.3966 8.05127 33.5372 7.16633C32.6777 6.28139 31.5072 5.76623 30.2742 5.73019C29.0168 5.73037 27.8109 6.23004 26.9219 7.11929C26.0329 8.00854 25.5336 9.21452 25.5338 10.4719C25.534 11.7293 26.0336 12.9352 26.9229 13.8242C27.8121 14.7132 29.0181 15.2125 30.2755 15.2123L30.2742 15.2096ZM36.0495 18.0838C35.3721 16.8586 34.5436 15.8681 33.7124 15.1759C32.7181 15.9126 31.5143 16.3121 30.2769 16.3161C29.2567 16.3161 28.3068 16.0368 27.4755 15.5739C28.1448 17.0488 28.5591 18.5426 28.636 19.8785C28.7628 21.9241 28.1232 23.4409 26.844 24.1493C26.5699 24.2999 26.2718 24.4022 25.9629 24.4515C25.886 24.9805 25.8333 25.5311 25.8333 26.1113C25.8333 29.3674 27.095 31.9973 28.6509 31.9973C29.5873 31.9973 30.0542 31.0392 30.2755 29.5738C30.4955 31.0311 30.961 31.9973 31.8948 31.9973C33.4398 31.9973 34.715 29.366 34.715 26.114C34.715 25.3813 34.6435 24.6836 34.5261 24.0359C35.19 24.6742 35.8296 24.9373 36.4395 24.5865C37.7983 23.8308 37.6229 20.9189 36.0482 18.0825L36.0495 18.0838ZM7.08095 15.2096C8.01812 15.2091 8.9341 14.9307 9.71308 14.4096C10.4921 13.8886 11.099 13.1483 11.4573 12.2823C11.8156 11.4163 11.9091 10.4635 11.7259 9.54438C11.5427 8.62528 11.0912 7.78111 10.4283 7.11862C9.76542 6.45612 8.921 6.00504 8.00179 5.8224C7.08258 5.63976 6.12986 5.73377 5.26407 6.09254C4.39828 6.4513 3.65831 7.05872 3.13769 7.83799C2.61708 8.61726 2.33921 9.5334 2.33921 10.4706C2.33957 11.7281 2.83926 12.9339 3.72843 13.8231C4.6176 14.7123 5.82347 15.212 7.08095 15.2123V15.2096ZM10.5016 24.1452C8.35341 22.951 8.1564 19.39 9.88631 15.5712C9.03124 16.0567 8.06554 16.3137 7.08229 16.3175C5.79228 16.3175 4.61022 15.8857 3.64136 15.1759C2.81149 15.8668 1.98432 16.8572 1.30423 18.0811C-0.2705 20.9202 -0.443221 23.8322 0.916958 24.5851C1.52418 24.9333 2.16514 24.6728 2.82499 24.0373C2.70379 24.7224 2.64283 25.4169 2.64282 26.1126C2.64282 29.3674 3.90449 31.996 5.46033 31.996C6.39681 31.996 6.86369 31.0379 7.08499 29.5738C7.30764 31.0311 7.77318 31.9973 8.70425 31.9973C10.252 31.9973 11.5245 29.366 11.5245 26.114C11.5245 25.5297 11.4705 24.9778 11.3936 24.4488C11.0813 24.3996 10.7799 24.2964 10.503 24.1439L10.5016 24.1452Z" fill="#3D3D3D"/>
</svg>
