<svg width="25" height="28" viewBox="0 0 25 28" fill="none" xmlns="http://www.w3.org/2000/svg">
<path d="M19.25 17.5C17.85 17.5 16.8 18.025 15.75 18.9L10.15 15.75C10.325 15.225 10.5 14.525 10.5 14C10.5 13.475 10.325 12.775 10.15 12.25L15.75 9.1C16.8 9.975 17.85 10.5 19.25 10.5C22.225 10.5 24.5 8.225 24.5 5.25C24.5 2.275 22.225 0 19.25 0C16.275 0 14 2.275 14 5.25V6.125L7.875 9.45C7.175 9.1 6.3 8.75 5.25 8.75C2.45 8.75 0 11.025 0 14C0 16.8 2.45 19.25 5.25 19.25C6.3 19.25 7.175 18.9 7.875 18.55L14 21.875V22.75C14 25.725 16.275 28 19.25 28C22.225 28 24.5 25.725 24.5 22.75C24.5 19.775 22.225 17.5 19.25 17.5Z" fill="#3D3D3D"/>
</svg>
