<svg width="33" height="28" viewBox="0 0 33 28" fill="none" xmlns="http://www.w3.org/2000/svg">
<path d="M22.9147 20.101C24.3634 19.2958 24.1757 16.1929 22.4967 13.1655C21.7765 11.862 20.891 10.8065 20.0054 10.0685C18.9465 10.8544 17.6639 11.2806 16.3452 11.2847C15.0246 11.2818 13.7397 10.8555 12.6791 10.0685C11.7936 10.8065 10.9104 11.8632 10.1878 13.1655C8.50766 16.1917 8.32229 19.2958 9.77456 20.101C10.4216 20.4694 11.104 20.1931 11.8077 19.5154C11.676 20.2456 11.61 20.9861 11.6106 21.7281C11.6106 25.197 12.9566 28 14.6131 28C15.612 28 16.1067 26.9787 16.344 25.4166C16.5802 26.9681 17.0761 28 18.0679 28C19.7173 28 21.074 25.1958 21.074 21.7281C21.074 20.9488 21.0008 20.2049 20.8756 19.5166C21.584 20.1955 22.2641 20.4765 22.9135 20.1034L22.9147 20.101ZM16.3429 10.104C17.0128 10.114 17.6779 9.99063 18.2997 9.74114C18.9215 9.49165 19.4875 9.12098 19.9646 8.6507C20.4418 8.18043 20.8207 7.61994 21.0792 7.00187C21.3378 6.38379 21.4708 5.72046 21.4706 5.05049C21.4703 4.38052 21.3368 3.71729 21.0779 3.09939C20.8189 2.48149 20.4396 1.92127 19.9621 1.45134C19.4846 0.981397 18.9184 0.611124 18.2964 0.362067C17.6745 0.113011 17.0092 -0.00985638 16.3393 0.000617471C15.0129 0.0213562 13.7479 0.562946 12.8174 1.50844C11.8869 2.45393 11.3656 3.72746 11.366 5.05403C11.3665 6.3806 11.8887 7.65377 12.8199 8.59861C13.751 9.54345 15.0164 10.0842 16.3429 10.104ZM26.4899 13.3084C27.5688 13.2769 28.593 12.8261 29.345 12.0518C30.097 11.2775 30.5177 10.2406 30.5177 9.16116C30.5177 8.08177 30.097 7.04486 29.345 6.27054C28.593 5.49622 27.5688 5.04545 26.4899 5.01392C25.3897 5.01407 24.3345 5.45129 23.5567 6.22938C22.7788 7.00747 22.3419 8.0627 22.342 9.16294C22.3422 10.2632 22.7794 11.3183 23.5575 12.0961C24.3356 12.874 25.3908 13.3109 26.4911 13.3108L26.4899 13.3084ZM31.5433 15.8233C30.9506 14.7512 30.2257 13.8846 29.4983 13.2789C28.6283 13.9235 27.575 14.2731 26.4923 14.2766C25.5996 14.2766 24.7684 14.0322 24.0411 13.6272C24.6267 14.9177 24.9892 16.2248 25.0565 17.3937C25.1675 19.1836 24.6078 20.5107 23.4885 21.1306C23.2486 21.2624 22.9878 21.3519 22.7175 21.3951C22.6502 21.8579 22.6042 22.3397 22.6042 22.8474C22.6042 25.6964 23.7081 27.9976 25.0695 27.9976C25.8889 27.9976 26.2974 27.1593 26.4911 25.8771C26.6835 27.1522 27.0909 27.9976 27.9079 27.9976C29.2598 27.9976 30.3756 25.6953 30.3756 22.8497C30.3756 22.2086 30.313 21.5982 30.2103 21.0314C30.7912 21.5899 31.3509 21.8202 31.8846 21.5132C33.0735 20.852 32.92 18.304 31.5421 15.8221L31.5433 15.8233ZM6.19583 13.3084C7.01586 13.3079 7.81734 13.0644 8.49894 12.6084C9.18054 12.1525 9.71167 11.5047 10.0252 10.747C10.3386 9.98923 10.4204 9.15555 10.2602 8.35134C10.0999 7.54712 9.70477 6.80847 9.12476 6.22879C8.54474 5.64911 7.80588 5.25441 7.00157 5.0946C6.19726 4.93479 5.36363 5.01705 4.60606 5.33097C3.8485 5.64489 3.20102 6.17638 2.74548 6.85824C2.28995 7.5401 2.04681 8.34172 2.04681 9.16176C2.04712 10.262 2.48435 11.3172 3.26237 12.0952C4.0404 12.8732 5.09553 13.3105 6.19583 13.3108V13.3084ZM9.18893 21.1271C7.30924 20.0821 7.13685 16.9663 8.65052 13.6248C7.90234 14.0496 7.05735 14.2745 6.19701 14.2778C5.06825 14.2778 4.03394 13.8999 3.18619 13.2789C2.46006 13.8834 1.73628 14.7501 1.1412 15.821C-0.236688 18.3052 -0.387819 20.8532 0.802338 21.512C1.33366 21.8166 1.8945 21.5887 2.47186 21.0326C2.36581 21.6321 2.31248 22.2398 2.31247 22.8486C2.31247 25.6964 3.41643 27.9965 4.77779 27.9965C5.59721 27.9965 6.00573 27.1582 6.19937 25.8771C6.39419 27.1522 6.80153 27.9976 7.61622 27.9976C8.9705 27.9976 10.0839 25.6953 10.0839 22.8497C10.0839 22.3385 10.0367 21.8556 9.96938 21.3927C9.69611 21.3497 9.43242 21.2594 9.19011 21.1259L9.18893 21.1271Z" fill="#3D3D3D"/>
</svg>
