<svg width="32" height="28" viewBox="0 0 32 28" fill="none" xmlns="http://www.w3.org/2000/svg">
<path d="M6.125 3.5H0.875C0.39375 3.5 0 3.89375 0 4.375V23.625C0 24.1063 0.39375 24.5 0.875 24.5H6.125C6.60625 24.5 7 24.1063 7 23.625V4.375C7 3.89375 6.60625 3.5 6.125 3.5ZM5.25 8.75H1.75V7H5.25V8.75ZM14.875 3.5H9.625C9.14375 3.5 8.75 3.89375 8.75 4.375V23.625C8.75 24.1063 9.14375 24.5 9.625 24.5H14.875C15.3563 24.5 15.75 24.1063 15.75 23.625V4.375C15.75 3.89375 15.3563 3.5 14.875 3.5ZM14 8.75H10.5V7H14V8.75Z" fill="#3D3D3D"/>
<path d="M20.9196 4.85274L16.2314 7.21524C16.0249 7.32022 15.8682 7.5025 15.7954 7.72241C15.7227 7.94233 15.7397 8.18208 15.8429 8.38949L23.7179 24.017C23.8228 24.2235 24.0051 24.3802 24.225 24.4529C24.4449 24.5257 24.6847 24.5086 24.8921 24.4055L29.5804 22.043C29.7868 21.938 29.9435 21.7557 30.0163 21.5358C30.089 21.3159 30.072 21.0762 29.9689 20.8687L22.0939 5.24124C21.9889 5.03476 21.8066 4.87809 21.5867 4.80533C21.3668 4.73257 21.127 4.74961 20.9196 4.85274Z" fill="#3D3D3D"/>
<path d="M25.375 23.625C25.375 23.8571 25.2828 24.0796 25.1187 24.2437C24.9546 24.4078 24.7321 24.5 24.5 24.5C24.2679 24.5 24.0454 24.4078 23.8813 24.2437C23.7172 24.0796 23.625 23.8571 23.625 23.625C23.625 23.3929 23.7172 23.1704 23.8813 23.0063C24.0454 22.8422 24.2679 22.75 24.5 22.75C24.7321 22.75 24.9546 22.8422 25.1187 23.0063C25.2828 23.1704 25.375 23.3929 25.375 23.625Z" fill="#3D3D3D"/>
</svg>
