<svg width="32" height="34" viewBox="0 0 32 34" fill="none" xmlns="http://www.w3.org/2000/svg">
<mask id="mask0_382_2180" style="mask-type:luminance" maskUnits="userSpaceOnUse" x="12" y="8" width="20" height="23">
<path d="M31.9403 8.84045H12.2646V30.6016H31.9403V8.84045Z" fill="white"/>
</mask>
<g mask="url(#mask0_382_2180)">
<path d="M22.1025 26.9341L22.5268 27.7752C22.3957 27.845 22.2502 27.8814 22.1025 27.8814C21.9549 27.8814 21.8094 27.845 21.6783 27.7752L21.6684 27.7702L21.6463 27.7575C21.5174 27.6893 21.3904 27.6177 21.2651 27.5429C19.7662 26.6669 18.3523 25.646 17.0421 24.4942C14.7794 22.49 12.2646 19.483 12.2646 15.8837C12.2646 12.5192 14.8299 10.2005 17.4909 10.2005C19.3935 10.2005 21.061 11.2134 22.1025 12.7516C23.1441 11.2134 24.8116 10.2005 26.714 10.2005C29.3751 10.2005 31.9403 12.5192 31.9403 15.8837C31.9403 19.483 29.4255 22.49 27.1628 24.4942C25.7417 25.742 24.1988 26.8355 22.5588 27.7575L22.5366 27.7702L22.5292 27.774H22.5268L22.1025 26.9341ZM18.2472 13.2369C16.6044 13.2369 16.1038 14.0351 16.1038 16.3539C17.0421 20.0083 16.5481 20.2693 18.7432 22.2117C19.9408 23.2637 20.7356 25.0464 22.1025 25.8518C23.4694 25.0464 24.3842 23.2637 25.5817 22.2117C27.7768 20.2693 27.1628 19.8471 28.2211 17.16C28.2211 14.8412 28.3568 13.2369 26.714 13.2369C25.0256 13.2369 23.5057 13.3401 22.9892 15.1966C22.9347 15.3952 22.8187 15.5699 22.6586 15.6944C22.4986 15.819 22.3033 15.8863 22.1025 15.8863C21.9017 15.8863 21.7065 15.819 21.5463 15.6944C21.3863 15.5699 21.2702 15.3952 21.2159 15.1966C20.6994 13.3401 19.9358 13.2369 18.2472 13.2369Z" fill="#578DDD"/>
<path d="M15.624 13.2369H28.7012V22.4803L22.2826 26.296L15.624 22.4803V13.2369Z" fill="#578DDD"/>
<path d="M22.1874 23.4199L22.4025 23.8793C22.3361 23.9174 22.2623 23.9372 22.1874 23.9372C22.1126 23.9372 22.0387 23.9174 21.9723 23.8793L21.9672 23.8764L21.9561 23.8696C21.8907 23.8322 21.8263 23.7932 21.7627 23.7524C21.0026 23.2739 20.2855 22.7163 19.6211 22.0873C18.4736 20.9927 17.1982 19.3504 17.1982 17.3845C17.1982 15.5471 18.4991 14.2807 19.8487 14.2807C20.8135 14.2807 21.6592 14.8339 22.1874 15.674C22.7156 14.8339 23.5613 14.2807 24.5261 14.2807C25.8756 14.2807 27.1766 15.5471 27.1766 17.3845C27.1766 19.3504 25.9013 20.9927 24.7538 22.0873C24.033 22.7688 23.2505 23.366 22.4188 23.8696L22.4076 23.8764L22.4038 23.8786H22.4025L22.1874 23.4199ZM20.2323 15.9391C19.3991 15.9391 19.1452 16.3751 19.1452 17.6415C19.6211 19.6372 19.3706 19.7798 20.4838 20.8406C21.0911 21.4152 21.4941 22.3888 22.1874 22.8288C22.8806 22.3888 23.3445 21.4152 23.9519 20.8406C25.065 19.7798 24.7538 19.5492 25.2904 18.0817C25.2904 16.8154 25.3592 15.9391 24.5261 15.9391C23.6699 15.9391 22.899 15.9955 22.6371 17.0093C22.6095 17.1178 22.5506 17.2133 22.4695 17.2813C22.3883 17.3492 22.2892 17.386 22.1874 17.386C22.0856 17.386 21.9865 17.3492 21.9053 17.2813C21.8241 17.2133 21.7654 17.1178 21.7377 17.0093C21.4758 15.9955 21.0886 15.9391 20.2323 15.9391Z" fill="white"/>
<path d="M18.9023 15.9391H25.5342V20.9874L22.2791 23.0713L18.9023 20.9874V15.9391Z" fill="white"/>
</g>
<path d="M16.3818 19.8071C16.3818 20.8342 16.1891 21.8038 15.8036 22.7159C15.4273 23.6278 14.9042 24.4292 14.2343 25.1198C13.5643 25.8016 12.7658 26.3418 11.8389 26.7402C10.9211 27.1387 9.92531 27.3379 8.85152 27.3379C7.77773 27.3379 6.7636 27.1387 5.80911 26.7402C4.86381 26.3418 4.03782 25.8016 3.33114 25.1198C2.62446 24.4292 2.06461 23.6278 1.65163 22.7159C1.24781 21.8038 1.0459 20.8342 1.0459 19.8071C1.0459 18.5851 1.1698 17.3942 1.41759 16.2342C1.66539 15.0655 2.02791 13.963 2.50514 12.927C2.98239 11.8822 3.56518 10.9215 4.2535 10.0449C4.94182 9.16825 5.72192 8.40231 6.5938 7.74707H11.9214C11.3708 8.09241 10.8339 8.47758 10.3108 8.9026C9.78764 9.32762 9.28745 9.78364 8.81022 10.2706C8.34216 10.7577 7.90621 11.2712 7.5024 11.8114C7.09858 12.3515 6.74065 12.9137 6.42861 13.4982C6.82324 13.2414 7.25001 13.0244 7.70889 12.8473C8.17695 12.6614 8.65419 12.5684 9.14062 12.5684C10.2511 12.5684 11.2515 12.7499 12.1417 13.113C13.0411 13.4672 13.8029 13.9675 14.427 14.6138C15.0511 15.2514 15.5329 16.0129 15.8725 16.8983C16.2121 17.7839 16.3818 18.7533 16.3818 19.8071ZM12.4308 19.8071C12.4308 19.3024 12.3436 18.8287 12.1692 18.386C12.004 17.9343 11.7654 17.5403 11.4534 17.2038C11.1414 16.8585 10.7651 16.5884 10.3245 16.3936C9.88401 16.1988 9.393 16.1014 8.85152 16.1014C8.31003 16.1014 7.81903 16.1988 7.3785 16.3936C6.93798 16.5884 6.56169 16.8585 6.24964 17.2038C5.94678 17.5403 5.71274 17.9343 5.54755 18.386C5.38235 18.8287 5.29976 19.3024 5.29976 19.8071C5.29976 20.2941 5.38235 20.7634 5.54755 21.2149C5.72192 21.6577 5.96513 22.0518 6.27717 22.3971C6.58922 22.7424 6.96091 23.0169 7.39226 23.2205C7.83279 23.4242 8.31921 23.5261 8.85152 23.5261C9.393 23.5261 9.88401 23.4285 10.3245 23.2338C10.7651 23.039 11.1414 22.7734 11.4534 22.4369C11.7654 22.0916 12.004 21.6931 12.1692 21.2416C12.3436 20.7899 12.4308 20.3118 12.4308 19.8071Z" fill="#578DDD"/>
</svg>
