<svg width="27" height="28" viewBox="0 0 27 28" fill="none" xmlns="http://www.w3.org/2000/svg">
<path d="M21.1927 17.8069C22.5444 17.8069 23.8407 18.3439 24.7965 19.2997C25.7522 20.2555 26.2892 21.5518 26.2892 22.9035C26.2892 24.2552 25.7522 25.5515 24.7965 26.5073C23.8407 27.463 22.5444 28 21.1927 28C19.841 28 18.5447 27.463 17.5889 26.5073C16.6331 25.5515 16.0961 24.2552 16.0961 22.9035C16.0961 21.5518 16.6331 20.2555 17.5889 19.2997C18.5447 18.3439 19.841 17.8069 21.1927 17.8069ZM21.1927 20.3552C20.5168 20.3552 19.8687 20.6237 19.3908 21.1016C18.9129 21.5795 18.6444 22.2276 18.6444 22.9035C18.6444 23.5793 18.9129 24.2275 19.3908 24.7054C19.8687 25.1833 20.5168 25.4517 21.1927 25.4517C21.8685 25.4517 22.5167 25.1833 22.9946 24.7054C23.4725 24.2275 23.7409 23.5793 23.7409 22.9035C23.7409 22.2276 23.4725 21.5795 22.9946 21.1016C22.5167 20.6237 21.8685 20.3552 21.1927 20.3552ZM5.96678 17.2208C5.96678 17.2208 7.7633 15.4116 7.77605 11.8185C7.31736 9.02816 8.41311 5.75364 10.9232 3.25634C14.6564 -0.476871 20.0969 -1.08845 23.1039 1.88027C26.0726 4.88723 25.461 10.3278 21.7278 14.061C19.2305 16.571 15.956 17.6668 13.1656 17.2081C9.57257 17.2208 7.7633 19.0174 7.7633 19.0174L2.36098 24.4197L0.564453 22.6232L5.96678 17.2208ZM21.2819 3.70229C19.2815 1.71464 15.4591 2.31348 12.7197 5.06561C9.99304 7.79225 9.38145 11.6274 11.3691 13.615C13.3695 15.6027 17.1919 14.9911 19.9185 12.2645C22.6707 9.52507 23.2695 5.70267 21.2819 3.70229Z" fill="#3D3D3D"/>
</svg>
