<svg width="24" height="24" viewBox="0 0 24 24" fill="none" xmlns="http://www.w3.org/2000/svg">
<path d="M13.2936 2.1901e-06C13.6464 2.1901e-06 13.962 0.219595 14.0808 0.548383L14.9279 2.8967C15.2315 2.9723 15.4919 3.0479 15.7127 3.12709C15.9539 3.21349 16.2647 3.34429 16.6487 3.52308L18.6214 2.47912C18.7824 2.39381 18.9668 2.36301 19.1468 2.39136C19.3268 2.4197 19.4927 2.50565 19.6198 2.63631L21.3549 4.43025C21.5853 4.66904 21.6501 5.01823 21.5205 5.32302L20.5953 7.49134C20.7489 7.77333 20.8713 8.01453 20.9649 8.21612C21.0657 8.43571 21.1905 8.7381 21.3393 9.12809L23.4956 10.0521C23.8196 10.1901 24.02 10.514 23.9984 10.8608L23.84 13.3507C23.8292 13.5125 23.7711 13.6675 23.673 13.7966C23.5749 13.9256 23.441 14.023 23.288 14.0767L21.2457 14.8027C21.1869 15.0847 21.1257 15.3259 21.0609 15.5299C20.9564 15.8449 20.8371 16.1548 20.7033 16.4586L21.7293 18.7266C21.8017 18.8859 21.8212 19.0642 21.7849 19.2355C21.7486 19.4067 21.6585 19.5618 21.5277 19.6781L19.5766 21.4205C19.4481 21.5347 19.2877 21.607 19.117 21.6276C18.9463 21.6482 18.7734 21.6161 18.6214 21.5357L16.6103 20.4701C16.2956 20.6367 15.971 20.7838 15.6383 20.9105L14.7599 21.2393L13.98 23.3992C13.9222 23.5574 13.8179 23.6944 13.6808 23.7922C13.5438 23.8901 13.3804 23.9443 13.212 23.9476L10.9321 23.9992C10.7592 24.0037 10.5892 23.9546 10.4455 23.8585C10.3017 23.7625 10.1912 23.6242 10.1293 23.4628L9.21012 21.0305C8.89651 20.9233 8.586 20.8073 8.27896 20.6825C8.02782 20.5738 7.78049 20.4565 7.53738 20.3309L5.25746 21.3053C5.10723 21.3694 4.94162 21.3884 4.78077 21.3601C4.61992 21.3317 4.47077 21.2572 4.35149 21.1457L2.66435 19.5629C2.53874 19.4456 2.45319 19.2917 2.41982 19.1231C2.38644 18.9545 2.40692 18.7797 2.47836 18.6234L3.45872 16.4874C3.32834 16.2344 3.20746 15.9767 3.09633 15.7147C2.96662 15.3939 2.84657 15.0694 2.73635 14.7415L0.588421 14.0875C0.413828 14.0347 0.261545 13.9258 0.155223 13.7776C0.0489015 13.6294 -0.00550937 13.4502 0.000440948 13.2679L0.084438 10.9628C0.0904169 10.8124 0.1374 10.6665 0.220307 10.5409C0.303214 10.4153 0.418888 10.3147 0.554822 10.25L2.80834 9.16769C2.91274 8.7849 3.00394 8.48731 3.08433 8.27012C3.19754 7.98002 3.32325 7.69496 3.46112 7.41575L2.48435 5.35182C2.41023 5.19508 2.38772 5.01888 2.42006 4.84854C2.4524 4.6782 2.53793 4.52251 2.66435 4.40385L4.34909 2.81271C4.46719 2.70132 4.61497 2.62643 4.77463 2.59705C4.93429 2.56767 5.09904 2.58506 5.24906 2.64711L7.52658 3.58788C7.77857 3.41988 8.00656 3.28429 8.21296 3.17509C8.45895 3.0443 8.78774 2.9075 9.20172 2.75991L9.9937 0.550783C10.0522 0.389111 10.1593 0.249451 10.3002 0.150874C10.441 0.0522974 10.6089 -0.000391487 10.7809 2.1901e-06H13.2936ZM12.0288 8.42251C10.0285 8.42251 8.40735 10.0245 8.40735 12.002C8.40735 13.9795 10.0285 15.5827 12.0288 15.5827C14.028 15.5827 15.6491 13.9795 15.6491 12.002C15.6491 10.0245 14.0292 8.42251 12.0288 8.42251Z" fill="#3D3D3D"/>
</svg>
