<svg width="34" height="34" viewBox="0 0 34 34" fill="none" xmlns="http://www.w3.org/2000/svg">
<path d="M25.5 21.25C27.0029 21.25 28.4443 21.847 29.507 22.9097C30.5697 23.9724 31.1667 25.4138 31.1667 26.9167C31.1667 28.4196 30.5697 29.8609 29.507 30.9236C28.4443 31.9863 27.0029 32.5833 25.5 32.5833C23.9971 32.5833 22.5558 31.9863 21.4931 30.9236C20.4304 29.8609 19.8334 28.4196 19.8334 26.9167C19.8334 25.4138 20.4304 23.9724 21.4931 22.9097C22.5558 21.847 23.9971 21.25 25.5 21.25ZM25.5 24.0833C24.7486 24.0833 24.0279 24.3818 23.4966 24.9132C22.9652 25.4445 22.6667 26.1652 22.6667 26.9167C22.6667 27.6681 22.9652 28.3888 23.4966 28.9201C24.0279 29.4515 24.7486 29.75 25.5 29.75C26.2515 29.75 26.9722 29.4515 27.5035 28.9201C28.0349 28.3888 28.3334 27.6681 28.3334 26.9167C28.3334 26.1652 28.0349 25.4445 27.5035 24.9132C26.9722 24.3818 26.2515 24.0833 25.5 24.0833ZM8.57088 20.5983C8.57088 20.5983 10.5684 18.5867 10.5825 14.5917C10.0725 11.4892 11.2909 7.84833 14.0817 5.07167C18.2325 0.920832 24.2817 0.240833 27.625 3.54167C30.9259 6.885 30.2459 12.9342 26.095 17.085C23.3184 19.8758 19.6775 21.0942 16.575 20.5842C12.58 20.5983 10.5684 22.5958 10.5684 22.5958L4.56171 28.6025L2.56421 26.605L8.57088 20.5983ZM25.5992 5.5675C23.375 3.3575 19.125 4.02333 16.0792 7.08333C13.0475 10.115 12.3675 14.3792 14.5775 16.5892C16.8017 18.7992 21.0517 18.1192 24.0834 15.0875C27.1434 12.0417 27.8092 7.79167 25.5992 5.5675Z" fill="#3D3D3D"/>
</svg>
