<svg width="24" height="25" viewBox="0 0 24 25" fill="none" xmlns="http://www.w3.org/2000/svg">
<g clip-path="url(#clip0_21_258)">
<path fill-rule="evenodd" clip-rule="evenodd" d="M9 13.3599C9.53043 13.3599 10.0391 13.5706 10.4142 13.9457C10.7893 14.3208 11 14.8295 11 15.3599V19.3599C11 19.8903 10.7893 20.399 10.4142 20.7741C10.0391 21.1492 9.53043 21.3599 9 21.3599H5C4.46957 21.3599 3.96086 21.1492 3.58579 20.7741C3.21071 20.399 3 19.8903 3 19.3599V15.3599C3 14.8295 3.21071 14.3208 3.58579 13.9457C3.96086 13.5706 4.46957 13.3599 5 13.3599H9ZM19 13.3599C19.5304 13.3599 20.0391 13.5706 20.4142 13.9457C20.7893 14.3208 21 14.8295 21 15.3599V19.3599C21 19.8903 20.7893 20.399 20.4142 20.7741C20.0391 21.1492 19.5304 21.3599 19 21.3599H15C14.4696 21.3599 13.9609 21.1492 13.5858 20.7741C13.2107 20.399 13 19.8903 13 19.3599V15.3599C13 14.8295 13.2107 14.3208 13.5858 13.9457C13.9609 13.5706 14.4696 13.3599 15 13.3599H19ZM9 3.35989C9.53043 3.35989 10.0391 3.57061 10.4142 3.94568C10.7893 4.32075 11 4.82946 11 5.35989V9.35989C11 9.89033 10.7893 10.399 10.4142 10.7741C10.0391 11.1492 9.53043 11.3599 9 11.3599H5C4.46957 11.3599 3.96086 11.1492 3.58579 10.7741C3.21071 10.399 3 9.89033 3 9.35989V5.35989C3 4.82946 3.21071 4.32075 3.58579 3.94568C3.96086 3.57061 4.46957 3.35989 5 3.35989H9ZM19 3.35989C19.5304 3.35989 20.0391 3.57061 20.4142 3.94568C20.7893 4.32075 21 4.82946 21 5.35989V9.35989C21 9.89033 20.7893 10.399 20.4142 10.7741C20.0391 11.1492 19.5304 11.3599 19 11.3599H15C14.4696 11.3599 13.9609 11.1492 13.5858 10.7741C13.2107 10.399 13 9.89033 13 9.35989V5.35989C13 4.82946 13.2107 4.32075 13.5858 3.94568C13.9609 3.57061 14.4696 3.35989 15 3.35989H19Z" fill="#3D3D3D"/>
</g>
<defs>
<clipPath id="clip0_21_258">
<rect width="24" height="24" fill="white" transform="translate(0 0.359894)"/>
</clipPath>
</defs>
</svg>
