<svg width="45" height="40" viewBox="0 0 45 40" fill="none" xmlns="http://www.w3.org/2000/svg">
<path d="M8.75 5H1.25C0.5625 5 0 5.5625 0 6.25V33.75C0 34.4375 0.5625 35 1.25 35H8.75C9.4375 35 10 34.4375 10 33.75V6.25C10 5.5625 9.4375 5 8.75 5ZM7.5 12.5H2.5V10H7.5V12.5ZM21.25 5H13.75C13.0625 5 12.5 5.5625 12.5 6.25V33.75C12.5 34.4375 13.0625 35 13.75 35H21.25C21.9375 35 22.5 34.4375 22.5 33.75V6.25C22.5 5.5625 21.9375 5 21.25 5ZM20 12.5H15V10H20V12.5Z" fill="#3D3D3D"/>
<path d="M29.885 6.93253L23.1875 10.3075C22.8925 10.4575 22.6687 10.7179 22.5647 11.0321C22.4608 11.3462 22.4851 11.6887 22.6325 11.985L33.8825 34.31C34.0324 34.605 34.2928 34.8288 34.607 34.9328C34.9212 35.0367 35.2637 35.0124 35.56 34.865L42.2575 31.49C42.5525 31.3401 42.7763 31.0797 42.8802 30.7655C42.9842 30.4513 42.9598 30.1088 42.8125 29.8125L31.5625 7.48753C31.4125 7.19254 31.1521 6.96873 30.8379 6.86479C30.5238 6.76085 30.1813 6.78519 29.885 6.93253Z" fill="#3D3D3D"/>
<path d="M36.25 33.75C36.25 34.0815 36.1183 34.3995 35.8839 34.6339C35.6495 34.8683 35.3315 35 35 35C34.6685 35 34.3505 34.8683 34.1161 34.6339C33.8817 34.3995 33.75 34.0815 33.75 33.75C33.75 33.4185 33.8817 33.1005 34.1161 32.8661C34.3505 32.6317 34.6685 32.5 35 32.5C35.3315 32.5 35.6495 32.6317 35.8839 32.8661C36.1183 33.1005 36.25 33.4185 36.25 33.75Z" fill="#3D3D3D"/>
</svg>
