<svg width="24" height="6" viewBox="0 0 24 6" fill="none" xmlns="http://www.w3.org/2000/svg">
<path d="M2.66667 0.359894C3.37391 0.359894 4.05219 0.640846 4.55229 1.14094C5.05238 1.64104 5.33333 2.31932 5.33333 3.02656C5.33333 3.7338 5.05238 4.41208 4.55229 4.91218C4.05219 5.41228 3.37391 5.69323 2.66667 5.69323C1.95942 5.69323 1.28115 5.41228 0.781048 4.91218C0.280951 4.41208 0 3.7338 0 3.02656C0 2.31932 0.280951 1.64104 0.781048 1.14094C1.28115 0.640846 1.95942 0.359894 2.66667 0.359894ZM12 0.359894C12.7072 0.359894 13.3855 0.640846 13.8856 1.14094C14.3857 1.64104 14.6667 2.31932 14.6667 3.02656C14.6667 3.7338 14.3857 4.41208 13.8856 4.91218C13.3855 5.41228 12.7072 5.69323 12 5.69323C11.2928 5.69323 10.6145 5.41228 10.1144 4.91218C9.61429 4.41208 9.33333 3.7338 9.33333 3.02656C9.33333 2.31932 9.61429 1.64104 10.1144 1.14094C10.6145 0.640846 11.2928 0.359894 12 0.359894ZM21.3333 0.359894C22.0406 0.359894 22.7189 0.640846 23.219 1.14094C23.719 1.64104 24 2.31932 24 3.02656C24 3.7338 23.719 4.41208 23.219 4.91218C22.7189 5.41228 22.0406 5.69323 21.3333 5.69323C20.6261 5.69323 19.9478 5.41228 19.4477 4.91218C18.9476 4.41208 18.6667 3.7338 18.6667 3.02656C18.6667 2.31932 18.9476 1.64104 19.4477 1.14094C19.9478 0.640846 20.6261 0.359894 21.3333 0.359894Z" fill="#3D3D3D"/>
</svg>
