<svg width="150" height="164" viewBox="0 0 150 164" fill="none" xmlns="http://www.w3.org/2000/svg">
<mask id="mask0_15_73" style="mask-type:luminance" maskUnits="userSpaceOnUse" x="57" y="42" width="93" height="107">
<path d="M149.719 42.9515H57.489V148.678H149.719V42.9515Z" fill="white"/>
</mask>
<g mask="url(#mask0_15_73)">
<path d="M103.604 130.86L105.593 134.946C104.978 135.285 104.296 135.463 103.604 135.463C102.912 135.463 102.23 135.285 101.615 134.946L101.569 134.922L101.465 134.861C100.861 134.529 100.266 134.181 99.6787 133.818C92.6525 129.562 86.0247 124.602 79.8833 119.005C69.2769 109.268 57.489 94.6586 57.489 77.1713C57.489 60.825 69.5135 49.5594 81.9872 49.5594C90.9053 49.5594 98.7218 54.4804 103.604 61.954C108.486 54.4804 116.303 49.5594 125.22 49.5594C137.694 49.5594 149.719 60.825 149.719 77.1713C149.719 94.6586 137.931 109.268 127.324 119.005C120.663 125.068 113.43 130.381 105.743 134.861L105.639 134.922L105.604 134.941H105.593L103.604 130.86ZM85.5324 64.3117C77.8315 64.3117 75.4851 68.1898 75.4851 79.4557C79.8833 97.2105 77.5679 98.4786 87.8571 107.916C93.4712 113.027 97.1967 121.688 103.604 125.602C110.011 121.688 114.299 113.027 119.913 107.916C130.202 98.4786 127.324 96.4275 132.285 83.3722C132.285 72.1064 132.921 64.3117 125.22 64.3117C117.306 64.3117 110.181 64.8133 107.76 73.833C107.505 74.7978 106.961 75.6469 106.211 76.2515C105.461 76.8568 104.545 77.1839 103.604 77.1839C102.663 77.1839 101.748 76.8568 100.997 76.2515C100.247 75.6469 99.7024 74.7978 99.448 73.833C97.0269 64.8133 93.4474 64.3117 85.5324 64.3117Z" fill="white"/>
<path d="M73.2357 64.3118H134.535V109.221L104.448 127.76L73.2357 109.221V64.3118Z" fill="white"/>
<path d="M104.004 113.786L105.012 116.018C104.701 116.203 104.354 116.299 104.004 116.299C103.653 116.299 103.306 116.203 102.995 116.018L102.971 116.004L102.919 115.971C102.613 115.789 102.311 115.6 102.013 115.401C98.4496 113.077 95.0882 110.368 91.9739 107.311C86.595 101.993 80.6168 94.0142 80.6168 84.4631C80.6168 75.5358 86.7146 69.3832 93.0411 69.3832C97.5635 69.3832 101.528 72.0706 104.004 76.1523C106.48 72.0706 110.444 69.3832 114.966 69.3832C121.292 69.3832 127.39 75.5358 127.39 84.4631C127.39 94.0142 121.412 101.993 116.033 107.311C112.655 110.623 108.987 113.524 105.088 115.971L105.036 116.004L105.018 116.015H105.012L104.004 113.786ZM94.8391 77.4402C90.9331 77.4402 89.743 79.5587 89.743 85.7114C91.9739 95.4079 90.7996 96.1004 96.0179 101.255C98.8646 104.046 100.754 108.776 104.004 110.914C107.253 108.776 109.427 104.046 112.275 101.255C117.492 96.1004 116.033 94.9803 118.549 87.8504C118.549 81.6977 118.871 77.4402 114.966 77.4402C110.953 77.4402 107.339 77.7145 106.112 82.64C105.982 83.1673 105.706 83.6312 105.326 83.9616C104.945 84.2913 104.481 84.4704 104.004 84.4704C103.527 84.4704 103.062 84.2913 102.681 83.9616C102.301 83.6312 102.025 83.1673 101.896 82.64C100.668 77.7145 98.8527 77.4402 94.8391 77.4402Z" fill="#578DDD"/>
<path d="M88.6024 77.4403H119.689V101.968L104.431 112.092L88.6024 101.968V77.4403Z" fill="#578DDD"/>
</g>
<path d="M76.7914 96.2333C76.7914 101.224 75.8881 105.934 74.0808 110.366C72.3171 114.796 69.8649 118.69 66.7249 122.045C63.5841 125.358 59.8413 127.982 55.4963 129.918C51.1942 131.854 46.5265 132.822 41.4931 132.822C36.4598 132.822 31.706 131.854 27.2318 129.918C22.8008 127.982 18.9289 125.358 15.6164 122.045C12.3038 118.69 9.67953 114.796 7.74367 110.366C5.85074 105.934 4.9043 101.224 4.9043 96.2333C4.9043 90.2961 5.48507 84.5102 6.64662 78.8743C7.80817 73.1961 9.50746 67.8397 11.7445 62.8064C13.9816 57.73 16.7134 53.0622 19.9399 48.8032C23.1664 44.5442 26.8231 40.8229 30.9101 37.6394H55.8834C53.3022 39.3172 50.7855 41.1886 48.3333 43.2536C45.8812 45.3185 43.5366 47.5341 41.2995 49.9002C39.1055 52.2664 37.062 54.7615 35.1692 57.3858C33.2762 60.01 31.5984 62.7418 30.1358 65.5812C31.9856 64.3336 33.9861 63.2796 36.1371 62.4191C38.3311 61.5158 40.5682 61.0641 42.8483 61.0641C48.0538 61.0641 52.7429 61.9459 56.9159 63.7098C61.1319 65.4306 64.7026 67.8615 67.6282 71.0016C70.5535 74.0994 72.8121 77.7992 74.4039 82.1009C75.9958 86.4033 76.7914 91.1135 76.7914 96.2333ZM58.2711 96.2333C58.2711 93.7811 57.8624 91.4796 57.045 89.3287C56.2706 87.1342 55.1521 85.2199 53.6894 83.5851C52.2267 81.9073 50.4629 80.595 48.3979 79.6487C46.3329 78.7025 44.0313 78.2293 41.4931 78.2293C38.9549 78.2293 36.6534 78.7025 34.5884 79.6487C32.5234 80.595 30.7596 81.9073 29.2968 83.5851C27.8772 85.2199 26.7801 87.1342 26.0058 89.3287C25.2314 91.4796 24.8443 93.7811 24.8443 96.2333C24.8443 98.5996 25.2314 100.879 26.0058 103.073C26.8231 105.225 27.9632 107.139 29.4259 108.817C30.8886 110.495 32.6309 111.828 34.6529 112.817C36.7179 113.807 38.9979 114.302 41.4931 114.302C44.0313 114.302 46.3329 113.828 48.3979 112.882C50.4629 111.936 52.2267 110.645 53.6894 109.01C55.1521 107.333 56.2706 105.397 57.045 103.203C57.8624 101.008 58.2711 98.6855 58.2711 96.2333Z" fill="white"/>
</svg>
