<svg width="20" height="25" viewBox="0 0 20 25" fill="none" xmlns="http://www.w3.org/2000/svg">
<path d="M1.8878 4.87117L2.63736 8.06377L1.8878 11.2425L4.67785 12.9637L6.38519 15.7538L9.57779 15.0042L12.7704 15.7538L14.4777 12.9637L17.2678 11.2425L16.5182 8.06377L17.2678 4.87117L14.4916 3.14995L12.7704 0.359894L9.57779 1.12334L6.39907 0.373775L4.66397 3.14995L1.8878 4.87117ZM9.59167 13.6716C8.1191 13.6716 6.70684 13.0867 5.66557 12.0454C4.62431 11.0041 4.03933 9.59186 4.03933 8.11929C4.03933 6.64672 4.62431 5.23446 5.66557 4.19319C6.70684 3.15193 8.1191 2.56695 9.59167 2.56695C12.6455 2.56695 15.1301 5.05162 15.1301 8.10541C15.1301 11.187 12.6455 13.6716 9.59167 13.6716ZM9.56391 12.2835C7.25969 12.2835 5.41353 10.4235 5.41353 8.11929C5.41353 5.82895 7.25969 3.95504 9.56391 3.95504C11.8681 3.95504 13.742 5.82895 13.742 8.11929C13.742 10.4235 11.8681 12.2835 9.56391 12.2835ZM14.8942 13.8104L13.1174 16.9198L10.2302 16.2674L13.742 24.3599L15.6854 21.3061H19.1556L14.8942 13.8104ZM4.2059 13.9076L5.94101 17.0308L8.89763 16.3229L5.41353 24.3599L3.47021 21.3061H0L4.2059 13.9076Z" fill="#3D3D3D"/>
</svg>
