<svg width="32" height="21" viewBox="0 0 32 21" fill="none" xmlns="http://www.w3.org/2000/svg">
<path fill-rule="evenodd" clip-rule="evenodd" d="M32 10.2865C32 9.98342 31.8796 9.69275 31.6653 9.47843C31.451 9.26412 31.1603 9.14372 30.8572 9.14372H3.90351L11.0962 1.95332C11.2024 1.84707 11.2867 1.72093 11.3442 1.58211C11.4017 1.44328 11.4313 1.29449 11.4313 1.14423C11.4313 0.993966 11.4017 0.845175 11.3442 0.706351C11.2867 0.567527 11.2024 0.441388 11.0962 0.335136C10.9899 0.228885 10.8638 0.144602 10.725 0.0870992C10.5862 0.0295964 10.4374 0 10.2871 0C10.1368 0 9.98805 0.0295964 9.84922 0.0870992C9.7104 0.144602 9.58426 0.228885 9.47801 0.335136L0.335736 9.47741C0.229312 9.58356 0.144877 9.70967 0.0872658 9.84851C0.0296548 9.98735 0 10.1362 0 10.2865C0 10.4368 0.0296548 10.5857 0.0872658 10.7245C0.144877 10.8633 0.229312 10.9894 0.335736 11.0956L9.47801 20.2379C9.58426 20.3441 9.7104 20.4284 9.84922 20.4859C9.98805 20.5434 10.1368 20.573 10.2871 20.573C10.4374 20.573 10.5862 20.5434 10.725 20.4859C10.8638 20.4284 10.9899 20.3441 11.0962 20.2379C11.2024 20.1316 11.2867 20.0055 11.3442 19.8667C11.4017 19.7278 11.4313 19.579 11.4313 19.4288C11.4313 19.2785 11.4017 19.1297 11.3442 18.9909C11.2867 18.8521 11.2024 18.7259 11.0962 18.6197L3.90351 11.4293H30.8572C31.1603 11.4293 31.451 11.3089 31.6653 11.0946C31.8796 10.8803 32 10.5896 32 10.2865Z" fill="#3D3D3D"/>
</svg>
