<svg width="16" height="13" viewBox="0 0 16 13" fill="none" xmlns="http://www.w3.org/2000/svg">
<path d="M14.7762 9.83771C15.54 9.08502 15.9983 8.14069 15.9983 7.11026C15.9983 4.8883 13.8735 3.05241 11.1044 2.72467C10.2295 1.12487 8.17421 0 5.77727 0C2.58599 0 0.000187065 1.98865 0.000187065 4.44391C0.000187065 5.47157 0.458465 6.4159 1.22226 7.17136C0.797314 8.02404 0.186276 8.68507 0.175166 8.69618C0.00018707 8.88227 -0.0498069 9.15446 0.0529585 9.39054C0.152947 9.62662 0.386252 9.77938 0.641777 9.77938C2.12771 9.77938 3.32757 9.21834 4.11914 8.70173C4.37466 8.76006 4.63852 8.8045 4.90793 8.83783C5.78005 10.4321 7.82703 11.5542 10.2212 11.5542C10.7989 11.5542 11.3544 11.4875 11.8821 11.3653C12.6737 11.8791 13.8707 12.443 15.3595 12.443C15.615 12.443 15.8455 12.2902 15.9483 12.0541C16.0483 11.818 16.001 11.5458 15.8261 11.3597C15.815 11.3514 15.2011 10.6904 14.7762 9.83771ZM3.86639 7.27413L3.39145 7.58242C2.99983 7.83517 2.59988 8.03515 2.19437 8.1768C2.26936 8.04626 2.34435 7.90738 2.41656 7.76573L2.84707 6.90195L2.15826 6.22148C1.78331 5.8493 1.33336 5.24104 1.33336 4.44391C1.33336 2.758 3.36923 1.33317 5.77727 1.33317C8.18532 1.33317 10.2212 2.758 10.2212 4.44391C10.2212 6.12982 8.18532 7.55465 5.77727 7.55465C5.31899 7.55465 4.86071 7.50188 4.41632 7.39911L3.86639 7.27413ZM13.8402 8.88782L13.1542 9.56552L13.5847 10.4293C13.6569 10.571 13.7319 10.7098 13.8069 10.8404C13.4014 10.6987 13.0014 10.4987 12.6098 10.246L12.1348 9.9377L11.5821 10.0655C11.1377 10.1682 10.6795 10.221 10.2212 10.221C8.72136 10.221 7.38263 9.66273 6.5744 8.8406C9.38795 8.54064 11.5544 6.69086 11.5544 4.44391C11.5544 4.34948 11.5432 4.25782 11.5349 4.16617C13.3236 4.5689 14.6651 5.74375 14.6651 7.11026C14.6651 7.90738 14.2151 8.51564 13.8402 8.88782Z" fill="#3D3D3D"/>
</svg>
