<svg width="16" height="14" viewBox="0 0 16 14" fill="none" xmlns="http://www.w3.org/2000/svg">
<path d="M11.4483 0C10.0628 0 8.8331 0.546897 8 1.4869C7.1669 0.546897 5.93724 0 4.55172 0C3.34498 0.00146007 2.18808 0.481484 1.33478 1.33478C0.481484 2.18808 0.00146007 3.34498 0 4.55172C0 9.54069 7.29724 13.5269 7.60759 13.6945C7.72819 13.7594 7.86302 13.7934 8 13.7934C8.13698 13.7934 8.27181 13.7594 8.39241 13.6945C8.70276 13.5269 16 9.54069 16 4.55172C15.9985 3.34498 15.5185 2.18808 14.6652 1.33478C13.8119 0.481484 12.655 0.00146007 11.4483 0ZM11.0697 9.81793C10.1092 10.633 9.08238 11.3666 8 12.011C6.91762 11.3666 5.89085 10.633 4.93034 9.81793C3.43586 8.53586 1.65517 6.58069 1.65517 4.55172C1.65517 3.78351 1.96034 3.04676 2.50355 2.50355C3.04676 1.96034 3.78351 1.65517 4.55172 1.65517C5.77931 1.65517 6.8069 2.30345 7.23379 3.34759C7.29593 3.4998 7.40199 3.63005 7.53845 3.72174C7.67491 3.81343 7.83559 3.8624 8 3.8624C8.1644 3.8624 8.32508 3.81343 8.46155 3.72174C8.59801 3.63005 8.70407 3.4998 8.76621 3.34759C9.1931 2.30345 10.2207 1.65517 11.4483 1.65517C12.2165 1.65517 12.9532 1.96034 13.4964 2.50355C14.0397 3.04676 14.3448 3.78351 14.3448 4.55172C14.3448 6.58069 12.5641 8.53586 11.0697 9.81793Z" fill="#F02E51"/>
<path d="M16 4.42857C16 9.42857 8.58643 13.4757 8.27071 13.6429C8.1875 13.6876 8.09449 13.7111 8 13.7111C7.90551 13.7111 7.8125 13.6876 7.72929 13.6429C7.41357 13.4757 0 9.42857 0 4.42857C0.00132338 3.25445 0.468329 2.12879 1.29856 1.29856C2.12879 0.468329 3.25445 0.00132338 4.42857 0C5.90357 0 7.195 0.634286 8 1.70643C8.805 0.634286 10.0964 0 11.5714 0C12.7456 0.00132338 13.8712 0.468329 14.7014 1.29856C15.5317 2.12879 15.9987 3.25445 16 4.42857Z" fill="#F02E51"/>
</svg>
