<svg width="24" height="25" viewBox="0 0 24 25" fill="none" xmlns="http://www.w3.org/2000/svg">
<path d="M13.2936 0.359896C13.6464 0.359896 13.962 0.579488 14.0808 0.908277L14.9279 3.2566C15.2315 3.33219 15.4919 3.40779 15.7127 3.48699C15.9539 3.57339 16.2647 3.70418 16.6487 3.88297L18.6214 2.83901C18.7824 2.7537 18.9668 2.72291 19.1468 2.75125C19.3268 2.77959 19.4927 2.86554 19.6198 2.99621L21.3549 4.79014C21.5853 5.02893 21.6501 5.37812 21.5205 5.68291L20.5953 7.85124C20.7489 8.13323 20.8713 8.37442 20.9649 8.57601C21.0657 8.7956 21.1905 9.09799 21.3393 9.48798L23.4956 10.4119C23.8196 10.5499 24.02 10.8739 23.9984 11.2207L23.84 13.7106C23.8292 13.8724 23.7711 14.0274 23.673 14.1565C23.5749 14.2855 23.441 14.3829 23.288 14.4366L21.2457 15.1626C21.1869 15.4446 21.1257 15.6858 21.0609 15.8898C20.9564 16.2048 20.8371 16.5147 20.7033 16.8185L21.7293 19.0864C21.8017 19.2458 21.8212 19.4241 21.7849 19.5954C21.7486 19.7666 21.6585 19.9217 21.5277 20.038L19.5766 21.7804C19.4481 21.8946 19.2877 21.9669 19.117 21.9875C18.9463 22.0081 18.7734 21.976 18.6214 21.8956L16.6103 20.83C16.2956 20.9966 15.971 21.1437 15.6383 21.2704L14.7599 21.5992L13.98 23.7591C13.9222 23.9173 13.8179 24.0543 13.6808 24.1521C13.5438 24.25 13.3804 24.3041 13.212 24.3075L10.9321 24.3591C10.7592 24.3636 10.5892 24.3145 10.4455 24.2184C10.3017 24.1224 10.1912 23.9841 10.1293 23.8227L9.21012 21.3904C8.89651 21.2832 8.586 21.1671 8.27896 21.0424C8.02782 20.9337 7.78049 20.8164 7.53738 20.6908L5.25746 21.6652C5.10723 21.7292 4.94162 21.7483 4.78077 21.72C4.61992 21.6916 4.47077 21.6171 4.35149 21.5056L2.66435 19.9228C2.53874 19.8055 2.45319 19.6516 2.41982 19.483C2.38644 19.3144 2.40692 19.1396 2.47836 18.9833L3.45872 16.8473C3.32834 16.5943 3.20746 16.3366 3.09633 16.0746C2.96662 15.7538 2.84657 15.4293 2.73635 15.1014L0.588421 14.4474C0.413828 14.3946 0.261545 14.2857 0.155223 14.1375C0.0489015 13.9893 -0.00550937 13.8101 0.000440948 13.6278L0.084438 11.3227C0.0904169 11.1723 0.1374 11.0264 0.220307 10.9008C0.303214 10.7752 0.418888 10.6746 0.554822 10.6099L2.80834 9.52758C2.91274 9.14479 3.00394 8.8472 3.08433 8.63001C3.19754 8.33992 3.32325 8.05486 3.46112 7.77564L2.48436 5.71171C2.41023 5.55498 2.38772 5.37877 2.42006 5.20843C2.4524 5.03809 2.53793 4.8824 2.66435 4.76374L4.34909 3.1726C4.46719 3.06121 4.61497 2.98632 4.77463 2.95694C4.93429 2.92756 5.09904 2.94495 5.24906 3.007L7.52658 3.94777C7.77857 3.77978 8.00656 3.64418 8.21296 3.53499C8.45895 3.40419 8.78774 3.2674 9.20172 3.1198L9.9937 0.910677C10.0522 0.749005 10.1593 0.609345 10.3002 0.510768C10.441 0.412191 10.6089 0.359502 10.7809 0.359896H13.2936ZM12.0288 8.78241C10.0285 8.78241 8.40735 10.3843 8.40735 12.3619C8.40735 14.3394 10.0285 15.9426 12.0288 15.9426C14.028 15.9426 15.6491 14.3394 15.6491 12.3619C15.6491 10.3843 14.0292 8.78241 12.0288 8.78241Z" fill="#3D3D3D"/>
</svg>
